<svg xmlns="http://www.w3.org/2000/svg" viewBox="0 0 280 60" role="img" aria-label="Datadog">
  <path fill="#ffffff" d="M48.2 8.5 38.5 0 0 8.5v43l38.5 8.5 9.7-8.5V8.5zm-4.8 38.2-24.5-5.4V17.2l24.5-5.4v34.9z"/>
  <path fill="#ffffff" d="M72 18h8v24h-8V18zm16 0h8.2c9.8 0 16.5 5.8 16.5 14.5S106 47 96.2 47H88V18zm8 19.5c4.2 0 7-2.5 7-5.5s-2.8-5.5-7-5.5H96v11zM130 18h14.5c10.5 0 17.5 6.5 17.5 15.5S155 49 144.5 49H130V18zm14 19c5.5 0 9-3 9-7s-3.5-7-9-7h-6v14h6zM180 18h8v9.5l12-9.5h9.5l-13.5 10 14.5 14h-10l-12-12.5V47h-8V18z"/>
</svg>
