<svg xmlns="http://www.w3.org/2000/svg" viewBox="0 0 360 150" role="img" aria-label="Stripe">
  <path fill="#ffffff" d="M360 78.2c0-42.7-20.7-61.5-57.2-61.5-32.4 0-51.2 16.9-51.2 41.2 0 27.1 20.5 35.3 54.3 39.2 21.2 2.5 25 4.6 25 8.8 0 4.9-4.4 7.9-12.5 7.9-10.5 0-20.5-3.6-29.4-10.5l-16.5 34.2c10.8 7.6 24.5 11.7 45.2 11.7 37.1 0 59.3-18.3 59.3-42.3 0-28.1-20.8-36.5-54.5-40.3-20.8-2.5-24.8-4.6-24.8-8.7 0-4.4 3.7-7.2 11.6-7.2 9.2 0 18.2 3.2 25.8 8.5l15.9-33.2zM223.3 16.7h-42.1v116.6h42.1V16.7zm-70.8 0H81.5v19.8c-9.5-14.2-25.8-22.8-46.3-22.8C15.3 13.7 0 33.4 0 64.9c0 31.2 15.3 51.1 35.2 51.1 19.2 0 33.8-8.2 43.3-23.1v20.4h39.2V16.7zM37.4 88.2c-12.1 0-20.2-10.2-20.2-23.3s8.1-23.3 20.2-23.3c12.4 0 20.5 10.2 20.5 23.3s-8.1 23.3-20.5 23.3z"/>
</svg>
